<svg width="35" height="31" viewBox="0 0 35 31" fill="none" xmlns="http://www.w3.org/2000/svg">
<path d="M32.6691 23.6708L29.7407 28.7432C29.4672 29.2167 29.0829 29.6168 28.6209 29.9092C28.1589 30.2016 27.6328 30.3776 27.0878 30.4221L26.8105 30.434H7.28715C6.86446 30.4328 6.46093 30.3579 6.07656 30.2091L5.79758 30.0873L9.50038 23.6708H32.6691ZM11.2622 0.573173L15.0968 7.21623L3.51504 27.279L0.453042 21.9801C0.156249 21.466 0 20.8829 0 20.2893C0 19.6957 0.156249 19.1126 0.453042 18.5985L10.2156 1.69078C10.4793 1.23427 10.8395 0.855533 11.2622 0.573173ZM20.9537 4.37413e-07C21.5004 -0.000277629 22.0391 0.132025 22.5235 0.385568C23.0079 0.63911 23.4236 1.00633 23.735 1.45576L23.8804 1.69078L33.643 18.5985C33.8949 19.0347 34.042 19.5115 34.0826 19.9985L34.0961 20.2893H26.5485L14.8348 4.37413e-07H20.9537ZM17.0497 10.5978L22.6462 20.2893H11.4532L17.0497 10.5978Z" fill="#4C67FF"/>
</svg>
