<svg width="20" height="18" viewBox="0 0 20 18" fill="none" xmlns="http://www.w3.org/2000/svg">
<path d="M18.4027 13.334L16.7531 16.1912C16.599 16.4579 16.3826 16.6833 16.1223 16.848C15.8621 17.0128 15.5657 17.1119 15.2588 17.137L15.1026 17.1437H4.1049C3.8668 17.143 3.63949 17.1008 3.42297 17.017L3.26582 16.9484L5.35163 13.334H18.4027ZM6.34405 0.322872L8.50416 4.06495L1.98004 15.3664L0.255202 12.3815C0.088016 12.092 0 11.7635 0 11.4291C0 11.0947 0.088016 10.7662 0.255202 10.4767L5.7545 0.952425C5.90308 0.695271 6.10595 0.481927 6.34405 0.322872ZM11.8034 2.46398e-07C12.1113 -0.00015639 12.4148 0.0743704 12.6877 0.217193C12.9605 0.360015 13.1947 0.566874 13.3701 0.820038L13.452 0.952425L18.9513 10.4767C19.0932 10.7224 19.1761 10.991 19.1989 11.2653L19.2066 11.4291H14.9549L8.35653 2.46398e-07H11.8034ZM9.60421 5.9698L12.7567 11.4291H6.45168L9.60421 5.9698Z" fill="#4C67FF"/>
<path d="M18.4027 13.334L16.7531 16.1912C16.599 16.4579 16.3826 16.6833 16.1223 16.848C15.8621 17.0128 15.5657 17.1119 15.2588 17.137L15.1026 17.1437H4.1049C3.8668 17.143 3.63949 17.1008 3.42297 17.017L3.26582 16.9484L5.35163 13.334H18.4027ZM6.34405 0.322872L8.50416 4.06495L1.98004 15.3664L0.255202 12.3815C0.088016 12.092 0 11.7635 0 11.4291C0 11.0947 0.088016 10.7662 0.255202 10.4767L5.7545 0.952425C5.90308 0.695271 6.10595 0.481927 6.34405 0.322872ZM11.8034 2.46398e-07C12.1113 -0.00015639 12.4148 0.0743704 12.6877 0.217193C12.9605 0.360015 13.1947 0.566874 13.3701 0.820038L13.452 0.952425L18.9513 10.4767C19.0932 10.7224 19.1761 10.991 19.1989 11.2653L19.2066 11.4291H14.9549L8.35653 2.46398e-07H11.8034ZM9.60421 5.9698L12.7567 11.4291H6.45168L9.60421 5.9698Z" fill="url(#paint0_linear_3448_56578)"/>
<defs>
<linearGradient id="paint0_linear_3448_56578" x1="9.60328" y1="0" x2="9.60328" y2="17.1437" gradientUnits="userSpaceOnUse">
<stop stop-color="#07D6EB"/>
<stop offset="1" stop-color="#BF45F4"/>
</linearGradient>
</defs>
</svg>
