<svg width="34" height="31" viewBox="0 0 34 31" fill="none" xmlns="http://www.w3.org/2000/svg">
<path d="M6.72392 8.31656C7.7072 6.75762 8.5787 5.10459 9.35247 3.34878C9.60549 2.77619 9.84779 2.19226 10.0801 1.59698C10.1617 1.38743 10.1236 1.16453 9.97631 0.994357C9.82838 0.823514 9.61352 0.753442 9.3933 0.803494C8.77683 0.943638 8.16303 1.10314 7.55258 1.28065C5.20985 1.96335 2.91999 2.917 0.724514 4.1436L0.30483 4.37784C0.0692175 4.50931 -0.0459112 4.77158 0.0170079 5.03318L0.129459 5.50233C0.587966 7.41096 1.10872 9.22349 1.70177 10.9473C2.00699 11.8342 2.3323 12.6977 2.67769 13.5386C2.85439 13.9677 3.03579 14.3915 3.22321 14.8086C3.46886 15.3565 3.72522 15.8944 3.99029 16.4222C4.07797 16.5964 4.22925 16.7079 4.42135 16.7406C4.61345 16.7733 4.79351 16.7185 4.93407 16.5831C5.36648 16.168 5.78549 15.7442 6.19112 15.3118C7.67775 13.7268 8.98901 12.021 10.1483 10.1831C11.5459 7.9662 12.718 5.56039 13.7053 2.94036C13.7883 2.71947 13.9804 2.57598 14.216 2.55797C14.5915 2.5286 14.9677 2.50658 15.3438 2.4919C15.7314 2.47655 16.1196 2.46854 16.5079 2.46854C16.9838 2.46854 17.4597 2.47989 17.9356 2.50324C18.1531 2.51392 18.3707 2.5266 18.5882 2.54195C18.7763 2.5553 18.9323 2.64472 19.038 2.79955C19.1438 2.95437 19.1699 3.13256 19.1136 3.31141C18.0213 6.76897 16.6504 9.85147 14.9128 12.607C13.2501 15.2444 11.2441 17.5901 8.81699 19.6889C8.34443 20.0974 7.85647 20.4964 7.35111 20.8868C7.09541 21.0844 7.04521 21.4501 7.23732 21.709C7.61082 22.2115 7.99837 22.704 8.39998 23.1852C8.62489 23.4548 8.8538 23.7204 9.08741 23.9834C9.63695 24.602 10.2119 25.2026 10.8123 25.7859C11.141 26.1049 11.477 26.4185 11.8217 26.7275C12.4469 27.2881 13.0982 27.832 13.7782 28.3605C14.4302 28.867 15.1076 29.3596 15.8117 29.8387L16.1725 30.0836C16.3787 30.2238 16.6364 30.2238 16.8425 30.0836L17.2033 29.8387C21.4564 26.9471 24.7342 23.5536 27.2777 19.5194C29.8039 15.5133 31.5931 10.8872 32.8869 5.50166L32.9994 5.03251C33.0623 4.77091 32.9472 4.50864 32.7115 4.37717L32.2919 4.14293C31.4317 3.66177 30.5562 3.22332 29.6693 2.82624C29.1158 2.57865 28.5575 2.34708 27.9953 2.13219C27.8293 2.0688 27.6613 2.07881 27.504 2.16156C27.3467 2.24431 27.2436 2.37778 27.2034 2.54996C27.0635 3.14324 26.9176 3.72784 26.765 4.3031C25.5207 8.99259 23.8359 13.0728 21.5728 16.6438C19.868 19.3346 17.8278 21.7424 15.394 23.9113C15.2602 24.0307 15.1919 24.1862 15.1959 24.3651C15.1993 24.5439 15.2736 24.6968 15.4121 24.8109C15.7522 25.0898 16.0975 25.3628 16.4483 25.6284C16.6785 25.8026 16.9931 25.7892 17.2073 25.5963C19.7382 23.3147 21.8694 20.7814 23.6606 17.9538C25.8949 14.4275 27.5923 10.4514 28.8715 5.93811C28.921 5.7626 29.0355 5.63113 29.2028 5.55705C29.3701 5.48298 29.5442 5.48631 29.7082 5.56773C29.7497 5.58842 29.7912 5.60911 29.8327 5.62979C30.087 5.75659 30.2135 6.03688 30.1412 6.31049C28.9451 10.8452 27.3507 14.7785 25.1887 18.2081C23.0401 21.6156 20.3198 24.5359 16.8579 27.0659C16.6451 27.2214 16.3673 27.2214 16.1544 27.0659C16.036 26.9791 15.9175 26.8917 15.8003 26.8036C15.1176 26.2917 14.4643 25.7645 13.8391 25.22C13.4877 24.9143 13.145 24.6033 12.8117 24.287C12.2066 23.7137 11.6303 23.1231 11.0807 22.5138C10.9549 22.3744 10.8304 22.2336 10.7072 22.0921C10.4944 21.8472 10.5185 21.4754 10.7615 21.2605C13.2253 19.077 15.2796 16.6431 16.9985 13.9163C19.0347 10.6863 20.5922 7.05393 21.7977 2.94503C21.9678 2.3651 22.1311 1.77583 22.287 1.17721C22.3306 1.01037 22.3051 0.850208 22.2107 0.705393C22.117 0.560577 21.9812 0.471819 21.8105 0.443123C21.208 0.341685 20.603 0.257598 19.9972 0.190863C19.5507 0.142146 19.1043 0.102105 18.6571 0.0720742C17.9409 0.0240247 17.2241 0 16.5065 0C16.3773 0 16.2481 0.000667354 16.119 0.00266941C15.6431 0.0086756 15.1678 0.0246921 14.6926 0.0520536C13.9228 0.0954316 13.1551 0.167506 12.3893 0.266941C12.1591 0.296972 11.9777 0.445125 11.9034 0.664017C11.6336 1.4555 11.3478 2.22629 11.0453 2.97706C10.1925 5.09324 9.20655 7.05326 8.05995 8.8718C7.34375 10.0083 6.56328 11.0907 5.7132 12.1225C5.57531 12.2893 5.37451 12.3654 5.16032 12.332C4.94612 12.2987 4.77878 12.1639 4.6998 11.9623C4.6322 11.7901 4.56526 11.6166 4.49966 11.4418C4.15629 10.5335 3.83634 9.59788 3.53713 8.63288C3.30286 7.87677 3.08197 7.10331 2.87247 6.31116C2.80018 6.03688 2.92668 5.75726 3.18104 5.63046C3.65025 5.39555 4.12416 5.17399 4.60141 4.96578C4.84036 4.861 5.10811 4.91906 5.28214 5.1126C5.45684 5.30613 5.48562 5.57774 5.35644 5.80331C5.12417 6.20772 4.88521 6.60546 4.63889 6.99653C4.54317 7.14802 4.52108 7.3162 4.57396 7.48704L4.80757 8.24182C4.89391 8.51944 4.98227 8.79705 5.07263 9.07334C5.14492 9.29357 5.32565 9.44439 5.5559 9.47575C5.78683 9.50779 6.00102 9.41169 6.13088 9.21949C6.33168 8.92185 6.5278 8.62087 6.71991 8.31589L6.72392 8.31656ZM8.12622 18.6759C10.2447 16.6805 12.0433 14.4822 13.5761 12.0517C15.0112 9.77539 16.2087 7.29885 17.2127 4.59606C17.2823 4.4092 17.2582 4.21701 17.1437 4.05284C17.0299 3.88867 16.8579 3.79858 16.6578 3.79724C16.6083 3.79724 16.5587 3.79724 16.5092 3.79724C16.1384 3.79724 15.7682 3.80458 15.3974 3.81926L15.2575 3.8246C15.0145 3.83395 14.8124 3.97876 14.726 4.20499C13.8177 6.56809 12.7494 8.741 11.4877 10.7417C10.1637 12.8419 8.62154 14.7572 6.82299 16.5103C6.34105 16.9801 5.84105 17.4379 5.32163 17.8844C5.10208 18.0733 5.05054 18.3849 5.1978 18.6345C5.37451 18.9335 5.55456 19.2291 5.73931 19.5214C5.78817 19.5995 5.8377 19.6769 5.88723 19.7543C5.98295 19.9038 6.12418 19.9952 6.30022 20.0213C6.47626 20.0473 6.63825 20.0013 6.77346 19.8858C7.23799 19.4914 7.68846 19.0876 8.12555 18.6759H8.12622ZM23.1197 3.21865C21.9437 7.48437 20.3995 11.2089 18.3399 14.4756C16.7515 16.9948 14.8499 19.2485 12.5674 21.2739C12.4429 21.3847 12.3759 21.5248 12.3686 21.6903C12.3612 21.8558 12.4154 22.002 12.5299 22.1228C12.8284 22.4391 13.1336 22.7487 13.4456 23.0524C13.6698 23.2706 14.0239 23.278 14.2568 23.0704C16.6913 20.9022 18.7241 18.4877 20.4276 15.7862C22.619 12.3107 24.2563 8.36795 25.4959 3.86798C25.6633 3.26202 25.8226 2.64606 25.9759 2.02008C26.0508 1.71243 25.8708 1.40078 25.5662 1.31135C25.1499 1.18856 24.7322 1.07511 24.3132 0.969665C24.1532 0.929624 24.0019 0.952314 23.8607 1.03707C23.7195 1.12182 23.6291 1.24528 23.5903 1.40478C23.4403 2.02008 23.2837 2.62537 23.1197 3.21931V3.21865Z" fill="#4C67FF"/>
</svg>
