<svg width="19" height="17" viewBox="0 0 19 17" fill="none" xmlns="http://www.w3.org/2000/svg">
<path d="M3.78763 4.68477C4.34152 3.80661 4.83244 2.87545 5.26831 1.88639C5.41084 1.56385 5.54733 1.23491 5.67816 0.899588C5.72416 0.781548 5.70267 0.655989 5.61972 0.560128C5.53639 0.463891 5.41536 0.424419 5.29131 0.452613C4.94405 0.531558 4.59829 0.621404 4.25442 0.7214C2.93474 1.10597 1.64485 1.64317 0.408124 2.33412L0.171713 2.46607C0.0389907 2.54012 -0.0258621 2.68786 0.00958068 2.83522L0.0729252 3.0995C0.331205 4.17464 0.624551 5.19566 0.958618 6.16667C1.13055 6.66627 1.3138 7.15272 1.50836 7.62639C1.6079 7.8681 1.71008 8.10682 1.81565 8.34177C1.95403 8.6504 2.09844 8.9534 2.24776 9.25076C2.29715 9.34887 2.38236 9.41165 2.49058 9.43007C2.59879 9.44849 2.70022 9.41767 2.7794 9.34135C3.02297 9.10753 3.25901 8.86882 3.4875 8.62522C4.32493 7.7324 5.06357 6.77153 5.71662 5.73624C6.50391 4.48741 7.16412 3.13221 7.72027 1.65632C7.76703 1.53189 7.87524 1.45107 8.00796 1.44092C8.21949 1.42438 8.43139 1.41197 8.64329 1.4037C8.86161 1.39506 9.0803 1.39055 9.29899 1.39055C9.56707 1.39055 9.83515 1.39694 10.1032 1.41009C10.2258 1.41611 10.3483 1.42325 10.4709 1.4319C10.5768 1.43942 10.6647 1.48979 10.7242 1.577C10.7838 1.66422 10.7985 1.76459 10.7668 1.86534C10.1515 3.813 9.3793 5.5494 8.40047 7.10159C7.46388 8.58725 6.33386 9.90862 4.96667 11.0909C4.70047 11.321 4.4256 11.5458 4.14093 11.7657C3.9969 11.877 3.96862 12.083 4.07683 12.2288C4.28722 12.5119 4.50554 12.7893 4.73177 13.0604C4.85846 13.2123 4.98741 13.3619 5.119 13.51C5.42856 13.8585 5.75244 14.1968 6.09066 14.5254C6.27579 14.705 6.46507 14.8817 6.65925 15.0558C7.01142 15.3716 7.37829 15.6779 7.76137 15.9757C8.12862 16.261 8.51019 16.5384 8.90685 16.8083L9.11008 16.9463C9.22621 17.0253 9.37138 17.0253 9.48751 16.9463L9.69074 16.8083C12.0865 15.1795 13.9329 13.2679 15.3657 10.9954C16.7887 8.73875 17.7966 6.13284 18.5254 3.09912L18.5888 2.83485C18.6242 2.68749 18.5594 2.53975 18.4266 2.46569L18.1902 2.33374C17.7057 2.0627 17.2125 1.81572 16.7129 1.59204C16.4011 1.45257 16.0867 1.32213 15.7699 1.20108C15.6764 1.16537 15.5818 1.17101 15.4932 1.21762C15.4046 1.26423 15.3465 1.33942 15.3239 1.43641C15.2451 1.77061 15.1629 2.09992 15.0769 2.42396C14.376 5.06559 13.4269 7.36399 12.1521 9.37556C11.1918 10.8913 10.0425 12.2476 8.67157 13.4694C8.59616 13.5367 8.5577 13.6243 8.55997 13.725C8.56185 13.8258 8.6037 13.9118 8.68175 13.9761C8.87329 14.1333 9.06785 14.287 9.26543 14.4366C9.39513 14.5348 9.57235 14.5272 9.693 14.4186C11.1186 13.1333 12.3192 11.7063 13.3282 10.1135C14.5867 8.12712 15.5429 5.88736 16.2635 3.34498C16.2914 3.24611 16.3559 3.17205 16.4501 3.13033C16.5444 3.0886 16.6424 3.09048 16.7348 3.13634C16.7582 3.14799 16.7816 3.15965 16.8049 3.1713C16.9482 3.24273 17.0195 3.40062 16.9788 3.55474C16.305 6.10915 15.4068 8.32485 14.189 10.2567C12.9786 12.1762 11.4463 13.8213 9.49618 15.2464C9.37628 15.334 9.2198 15.334 9.0999 15.2464C9.03316 15.1975 8.96643 15.1483 8.90044 15.0986C8.51585 14.8103 8.14785 14.5133 7.79568 14.2066C7.59773 14.0344 7.40468 13.8592 7.21691 13.681C6.87606 13.3581 6.55141 13.0254 6.24186 12.6822C6.17097 12.6036 6.10084 12.5243 6.03146 12.4446C5.91156 12.3066 5.92513 12.0973 6.062 11.9762C7.44993 10.7462 8.6071 9.37519 9.57536 7.83916C10.7224 6.01968 11.5998 3.97352 12.2788 1.65896C12.3746 1.33228 12.4666 1.00034 12.5544 0.663131C12.579 0.56915 12.5646 0.478928 12.5115 0.397352C12.4587 0.315777 12.3821 0.265779 12.286 0.249614C11.9466 0.192473 11.6058 0.145107 11.2646 0.107514C11.0131 0.080072 10.7616 0.0575165 10.5097 0.0405999C10.1063 0.0135333 9.70243 0 9.29823 0C9.22546 0 9.15269 0.000375925 9.07992 0.0015037C8.81184 0.00488702 8.54413 0.0139092 8.27642 0.0293221C7.84281 0.0537572 7.41034 0.0943571 6.97899 0.15037C6.84929 0.167287 6.7471 0.250742 6.70525 0.374045C6.5533 0.819892 6.3923 1.25408 6.22187 1.677C5.74151 2.86906 5.18611 3.97315 4.54023 4.99754C4.13678 5.63774 3.69714 6.24749 3.21828 6.82867C3.14061 6.92265 3.0275 6.96551 2.90684 6.94671C2.78618 6.92792 2.69192 6.85198 2.64743 6.73845C2.60935 6.64146 2.57164 6.54372 2.53469 6.44523C2.34126 5.9336 2.16103 5.40655 1.99249 4.86296C1.86052 4.43704 1.7361 4.00134 1.61808 3.55512C1.57736 3.40062 1.64862 3.2431 1.7919 3.17168C2.05621 3.03935 2.32317 2.91454 2.592 2.79726C2.72661 2.73824 2.87743 2.77094 2.97546 2.87996C3.07387 2.98898 3.09009 3.14198 3.01732 3.26904C2.88648 3.49685 2.75187 3.7209 2.61312 3.9412C2.5592 4.02653 2.54676 4.12126 2.57654 4.2175L2.70813 4.64267C2.75677 4.79906 2.80654 4.95544 2.85745 5.11107C2.89817 5.23513 2.99997 5.32009 3.12968 5.33776C3.25976 5.3558 3.38042 5.30167 3.45356 5.1934C3.56668 5.02574 3.67716 4.8562 3.78537 4.6844L3.78763 4.68477ZM4.57755 10.5203C5.77092 9.39624 6.78406 8.15794 7.6475 6.78883C8.4559 5.50655 9.13044 4.11149 9.69602 2.58899C9.73523 2.48373 9.72166 2.37547 9.65718 2.28299C9.59308 2.19051 9.49618 2.13976 9.38344 2.13901C9.35554 2.13901 9.32764 2.13901 9.29974 2.13901C9.09085 2.13901 8.88234 2.14315 8.67346 2.15142L8.59465 2.15442C8.45778 2.15969 8.34391 2.24126 8.29528 2.3687C7.78362 3.69985 7.18184 4.92386 6.4711 6.05088C5.7253 7.23392 4.85657 8.31282 3.84344 9.30038C3.57196 9.56503 3.2903 9.82291 2.99771 10.0744C2.87404 10.1808 2.845 10.3564 2.92796 10.4969C3.0275 10.6654 3.12892 10.8319 3.23299 10.9966C3.26051 11.0405 3.28842 11.0841 3.31632 11.1277C3.37024 11.212 3.44979 11.2635 3.54896 11.2781C3.64812 11.2928 3.73937 11.2668 3.81553 11.2018C4.07721 10.9796 4.33096 10.7522 4.57718 10.5203H4.57755ZM13.0235 1.81309C12.361 4.216 11.4912 6.31403 10.331 8.15418C9.43623 9.5733 8.36503 10.8428 7.07929 11.9837C7.00915 12.0461 6.97145 12.1251 6.9673 12.2183C6.96315 12.3115 6.9937 12.3939 7.05817 12.4619C7.22634 12.6401 7.39827 12.8145 7.57398 12.9856C7.70029 13.1085 7.89975 13.1126 8.03096 12.9957C9.4023 11.7743 10.5474 10.4142 11.507 8.8925C12.7415 6.93468 13.6637 4.71372 14.362 2.17886C14.4563 1.83752 14.546 1.49054 14.6324 1.13792C14.6746 0.964623 14.5732 0.789066 14.4016 0.738692C14.1671 0.669522 13.9318 0.605615 13.6958 0.546219C13.6057 0.523663 13.5204 0.536445 13.4409 0.584187C13.3613 0.63193 13.3104 0.701476 13.2886 0.791322C13.2041 1.13792 13.1159 1.47889 13.0235 1.81346V1.81309Z" fill="#A143FF"/>
</svg>
