<svg width="32" height="29" viewBox="0 0 32 29" fill="none" xmlns="http://www.w3.org/2000/svg">
<path d="M1.37224 26.9864H29.4332L22.446 15.6601L22.5648 15.3415C22.9888 14.1995 23.2038 12.999 23.2038 11.7757C23.2038 10.7668 23.0599 9.74097 22.7774 8.72604C22.372 7.27802 21.6584 5.96975 20.6552 4.83916C19.6729 3.73147 18.4392 2.85748 16.9869 2.24009C15.6254 1.66305 14.1427 1.38236 12.457 1.38236H1.37283V26.9858H1.37164L1.37224 26.9864ZM31.9024 28.37H0V0H12.4558C14.3267 0 15.9825 0.316226 17.5172 0.965544C19.1593 1.66245 20.5584 2.6551 21.6763 3.91639C22.8204 5.20599 23.6349 6.69797 24.0965 8.35078C24.413 9.48799 24.5736 10.6397 24.5736 11.7757C24.5736 13.0502 24.3682 14.3019 23.9634 15.5023L31.9018 28.3712L31.903 28.37H31.9024Z" fill="#4C67FF"/>
<path d="M3.5644 24.7722H25.479L19.9387 15.7913L20.1178 15.4414C20.2563 15.1721 20.3806 14.8927 20.4874 14.609C20.8302 13.7018 21.004 12.7477 21.004 11.7738C21.004 10.9678 20.8881 10.1438 20.66 9.32527C20.3465 8.20493 19.793 7.19119 19.0137 6.31359C18.2499 5.45285 17.2802 4.7686 16.1313 4.28011C15.0439 3.81992 13.8406 3.59525 12.4517 3.59525H3.56321V24.7704L3.5644 24.7722ZM27.9487 26.1557H2.19336V2.21289H12.4541C14.0281 2.21289 15.4058 2.4725 16.6651 3.00617C18.0039 3.57477 19.1385 4.37768 20.0384 5.39262C20.9574 6.42864 21.6113 7.62668 21.9827 8.95182C22.2454 9.89327 22.3774 10.8432 22.3774 11.7756C22.3774 12.9188 22.1732 14.0379 21.7713 15.1035C21.6919 15.3113 21.6059 15.5185 21.5121 15.7215L27.9493 26.1563V26.1551L27.9487 26.1557Z" fill="#4C67FF"/>
<path d="M5.75895 22.558H21.5277L17.2999 15.7053L17.5955 15.324C17.9484 14.868 18.2321 14.3627 18.4363 13.8212C18.6829 13.1664 18.8095 12.4779 18.8095 11.775C18.8095 11.1721 18.7217 10.5499 18.548 9.92766C18.3258 9.13438 17.9335 8.4152 17.3788 7.79118C16.8342 7.17619 16.1278 6.68228 15.2828 6.32328C14.4689 5.97875 13.5439 5.8113 12.4535 5.8113H5.76015V22.5592L5.75895 22.558ZM23.9969 23.9422H4.38672V4.42773H12.4523C13.7284 4.42773 14.829 4.63072 15.8143 5.04754C16.8497 5.48664 17.7197 6.09922 18.4011 6.8684C19.0962 7.65143 19.5888 8.55373 19.8677 9.5524C20.0749 10.2975 20.18 11.0444 20.18 11.775C20.18 12.6472 20.0247 13.5013 19.7172 14.3139C19.5213 14.8319 19.2681 15.3228 18.9606 15.78L23.9957 23.941V23.9422H23.9969Z" fill="#4C67FF"/>
<path d="M12.1004 16.8329L14.1092 20.3451H17.5774L14.3791 15.1602L14.9524 14.7922C15.2479 14.603 15.5107 14.3784 15.7316 14.1248C16.0147 13.8013 16.235 13.4333 16.3861 13.0328C16.5384 12.631 16.6154 12.2076 16.6154 11.7751C16.6154 11.3745 16.5551 10.9553 16.4363 10.5288C16.3061 10.0632 16.0726 9.6386 15.7436 9.26756C15.4163 8.89893 14.9756 8.59475 14.4328 8.36466C13.893 8.13637 13.2463 8.02494 12.4521 8.02494H7.95383V20.3445H10.7956V16.8401L12.0998 16.8329H12.101H12.1004ZM20.0472 21.7287H13.3174L12.1691 19.7205V21.7287H6.58398V6.64258H12.4545C13.4338 6.64258 14.2549 6.78895 14.9661 7.09011C15.6976 7.40092 16.3037 7.82376 16.7671 8.34598C17.237 8.87544 17.5702 9.4838 17.7577 10.1548C17.9106 10.7035 17.9882 11.2486 17.9882 11.7763C17.9882 12.3786 17.8807 12.9677 17.6694 13.5273C17.4592 14.0832 17.1534 14.5928 16.7611 15.0415C16.6005 15.2247 16.4267 15.3957 16.2392 15.5553L20.0478 21.7293H20.0466L20.0472 21.7287Z" fill="#4C67FF"/>
<path d="M10.1159 13.5361H12.0453C12.3307 13.5361 12.6143 13.5132 12.8956 13.4668C13.1757 13.4204 13.4259 13.3355 13.6456 13.2114C13.8654 13.0873 14.0415 12.9097 14.1741 12.6784C14.3066 12.4471 14.3729 12.1453 14.3729 11.7749C14.3729 11.4044 14.306 11.1032 14.1741 10.8714C14.0415 10.6401 13.8648 10.4624 13.6456 10.3383C13.4259 10.2142 13.1757 10.1305 12.8956 10.0841C12.6143 10.0377 12.3307 10.0148 12.0453 10.0148H10.1159V13.5361ZM8.64632 8.7168H12.4591C13.153 8.7168 13.725 8.81257 14.1741 9.00291C14.6231 9.19324 14.9784 9.43599 15.2376 9.72932C15.4979 10.0227 15.6795 10.3527 15.7816 10.7184C15.8837 11.084 15.9345 11.4363 15.9345 11.7767C15.9345 12.117 15.873 12.4639 15.7511 12.7886C15.6281 13.1132 15.452 13.4066 15.2227 13.6692C14.9934 13.9318 14.7121 14.1535 14.3807 14.3336C14.0493 14.5143 13.6784 14.6245 13.27 14.6655L16.3477 19.654H14.5097L11.7533 14.8347H10.1147V19.654H8.64453V8.7186L8.64572 8.7174L8.64632 8.7168Z" fill="#4C67FF"/>
</svg>
