<svg width="28" height="27" viewBox="0 0 28 27" fill="none" xmlns="http://www.w3.org/2000/svg">
<path fill-rule="evenodd" clip-rule="evenodd" d="M6.80283 26.2279H20.4085C24.4902 26.2279 27.2113 24.6244 27.2113 19.8624V13.837C27.2113 9.35121 25.8315 7.28006 22.2595 7.05492C21.8616 7.02984 21.5163 6.75455 21.4349 6.36427C19.6644 -2.12143 7.54697 -2.12142 5.77641 6.36428C5.69498 6.75455 5.34971 7.02984 4.95182 7.05492C1.37982 7.28006 0 9.35121 0 13.837L0 19.8624C0 24.6244 2.72113 26.2279 6.80283 26.2279ZM10.7273 20.0727C11.4477 20.6601 12.3898 20.9483 13.3208 20.9483C14.2518 20.9483 15.1938 20.6601 15.9032 20.0727L19.3722 17.3019C19.738 17.0248 19.7934 16.4928 19.5052 16.1381C19.2281 15.7724 18.6961 15.717 18.3415 16.0051L14.8724 18.776C14.0301 19.452 12.6004 19.452 11.758 18.776L8.289 16.0051C7.93434 15.717 7.41343 15.7835 7.12526 16.1381C6.8371 16.4928 6.90359 17.0137 7.25826 17.3019L10.7273 20.0727ZM12.3909 9.9813C12.3909 11.4707 11.6077 12.6781 10.6416 12.6781C9.67546 12.6781 8.89227 11.4707 8.89227 9.9813C8.89227 8.49187 9.67546 7.28446 10.6416 7.28446C11.6077 7.28446 12.3909 8.49187 12.3909 9.9813ZM16.4726 12.6781C17.4387 12.6781 18.2219 11.4707 18.2219 9.9813C18.2219 8.49187 17.4387 7.28446 16.4726 7.28446C15.5065 7.28446 14.7233 8.49187 14.7233 9.9813C14.7233 11.4707 15.5065 12.6781 16.4726 12.6781Z" fill="#4C67FF"/>
</svg>
