<svg width="16" height="15" viewBox="0 0 16 15" fill="none" xmlns="http://www.w3.org/2000/svg">
<path fill-rule="evenodd" clip-rule="evenodd" d="M3.83208 14.7744H11.4962C13.7955 14.7744 15.3283 13.8711 15.3283 11.1886V7.79449C15.3283 5.2676 14.5511 4.1009 12.5389 3.97409C12.3148 3.95996 12.1203 3.80488 12.0744 3.58504C11.0771 -1.19501 4.25126 -1.19501 3.25389 3.58504C3.20802 3.80489 3.01353 3.95996 2.78939 3.97409C0.77726 4.1009 0 5.2676 0 7.79449L0 11.1886C0 13.8711 1.53283 14.7744 3.83208 14.7744ZM6.04277 11.3071C6.44858 11.638 6.97925 11.8003 7.50369 11.8003C8.02812 11.8003 8.5588 11.638 8.95837 11.3071L10.9125 9.74627C11.1185 9.59019 11.1497 9.29051 10.9874 9.09072C10.8313 8.8847 10.5317 8.85348 10.3319 9.01581L8.37774 10.5766C7.90325 10.9575 7.09787 10.9575 6.62338 10.5766L4.66925 9.01581C4.46947 8.85348 4.17603 8.89094 4.01371 9.09072C3.85138 9.29051 3.88884 9.58394 4.08862 9.74627L6.04277 11.3071ZM6.97986 5.62253C6.97986 6.46153 6.53869 7.14168 5.99447 7.14168C5.45025 7.14168 5.00908 6.46153 5.00908 5.62253C5.00908 4.78353 5.45025 4.10338 5.99447 4.10338C6.53869 4.10338 6.97986 4.78353 6.97986 5.62253ZM9.27911 7.14168C9.82333 7.14168 10.2645 6.46153 10.2645 5.62253C10.2645 4.78353 9.82333 4.10339 9.27911 4.10339C8.73489 4.10339 8.29372 4.78353 8.29372 5.62253C8.29372 6.46153 8.73489 7.14168 9.27911 7.14168Z" fill="#6818F2"/>
</svg>
